<?xml version="1.0" standalone="no"?>
<!DOCTYPE svg PUBLIC "-//W3C//DTD SVG 20010904//EN"
 "http://www.w3.org/TR/2001/REC-SVG-20010904/DTD/svg10.dtd">
<svg version="1.0" xmlns="http://www.w3.org/2000/svg"
 width="1024.000000pt" height="1024.000000pt" viewBox="0 0 1024.000000 1024.000000"
 preserveAspectRatio="xMidYMid meet">
<metadata>
Created by potrace 1.14, written by Peter Selinger 2001-2017
</metadata>
<g transform="translate(0.000000,1024.000000) scale(0.100000,-0.100000)"
fill="#000000" stroke="none">
<path d="M2399 10236 c-2 -2 -29 -6 -59 -10 -30 -3 -66 -8 -80 -10 -14 -3 -41
-7 -60 -10 -30 -5 -106 -23 -175 -42 -11 -3 -24 -6 -30 -7 -5 -2 -14 -5 -20
-8 -5 -4 -23 -10 -40 -14 -43 -12 -60 -18 -139 -55 -25 -11 -50 -20 -55 -20
-6 0 -11 -5 -11 -12 0 -6 -3 -9 -6 -6 -3 4 -33 -9 -66 -28 -33 -19 -64 -34
-69 -34 -5 0 -9 -4 -9 -9 0 -5 -8 -11 -17 -14 -19 -6 -70 -36 -89 -52 -7 -5
-42 -32 -79 -60 -142 -106 -340 -318 -440 -470 -11 -16 -18 -33 -17 -37 1 -5
-1 -8 -6 -8 -4 0 -16 -17 -27 -37 -11 -21 -22 -40 -25 -43 -7 -6 -83 -162 -86
-175 -2 -5 -19 -52 -38 -104 -20 -52 -38 -104 -41 -115 -2 -12 -8 -36 -14 -53
-5 -18 -8 -33 -5 -33 3 0 0 -9 -6 -20 -6 -11 -13 -44 -16 -73 -3 -28 -8 -55
-10 -58 -2 -4 -7 -37 -11 -75 -11 -92 -10 -6761 0 -6844 4 -36 10 -78 13 -95
2 -16 5 -37 6 -45 0 -8 5 -21 11 -28 5 -7 7 -15 4 -18 -3 -3 4 -36 15 -72 10
-37 21 -74 23 -82 2 -8 4 -15 5 -15 1 0 3 -9 4 -20 3 -20 51 -142 79 -200 8
-16 20 -43 28 -60 15 -31 83 -150 109 -190 8 -12 24 -37 35 -54 10 -17 23 -31
27 -31 4 0 8 -7 8 -15 0 -9 7 -18 15 -21 8 -4 15 -11 15 -16 0 -6 11 -21 26
-34 14 -13 22 -24 19 -24 -8 0 203 -209 242 -240 17 -14 44 -34 59 -45 15 -11
33 -26 40 -33 7 -6 15 -12 18 -12 3 0 27 -15 53 -34 27 -18 71 -46 98 -61 28
-15 54 -31 60 -36 5 -5 17 -9 26 -9 10 0 19 -4 21 -9 3 -9 187 -89 223 -96 11
-3 31 -9 45 -14 25 -10 102 -32 129 -37 7 -1 34 -7 60 -13 25 -6 58 -12 74
-13 15 -1 27 -5 27 -8 0 -3 15 -6 33 -8 17 -2 1540 -6 3382 -8 2269 -3 3361
-1 3385 6 19 6 49 13 65 15 17 3 68 24 113 46 64 31 101 58 155 113 85 86 83
84 123 161 52 101 68 169 68 280 0 119 -6 185 -16 185 -5 0 -8 11 -8 25 0 14
-5 25 -12 25 -6 0 -8 3 -5 6 8 8 -62 144 -74 144 -5 0 -9 6 -9 13 0 30 -206
198 -232 189 -5 -1 -8 2 -8 8 0 6 -3 9 -7 9 -5 -1 -11 0 -15 1 -5 1 -11 3 -15
5 -5 1 -20 7 -34 13 -35 14 -119 29 -174 31 -20 1 -29 26 -26 71 1 8 1 29 0
45 -1 17 -1 36 0 43 1 16 2 46 1 110 0 9 0 31 1 47 0 35 0 35 -2 97 -1 27 0
50 3 53 3 3 2 23 -2 45 -4 21 -4 44 0 51 4 6 4 23 0 38 -4 14 -4 36 0 47 5 11
5 27 0 34 -4 7 -4 24 0 39 4 14 4 35 0 46 -4 11 -4 32 1 47 4 14 5 29 2 32 -7
7 -8 94 -1 101 3 3 2 23 -2 45 -4 21 -4 44 0 51 4 6 4 25 0 40 -5 16 -5 31 0
34 5 3 5 18 0 34 -4 15 -5 33 -1 39 8 14 7 54 -2 69 -10 17 5 23 65 28 29 3
60 6 68 8 129 30 227 84 315 173 82 83 83 84 115 149 14 28 28 52 31 55 6 5
10 17 34 123 14 60 15 418 11 3360 -2 1810 -5 3302 -7 3315 -2 12 -7 22 -11
22 -5 0 -8 11 -8 25 0 14 -5 25 -12 25 -6 0 -8 3 -5 6 8 8 -62 144 -74 144 -5
0 -9 6 -9 13 0 17 -94 107 -157 151 -29 20 -55 36 -57 36 -2 0 -21 8 -42 17
-22 9 -42 18 -46 19 -5 1 -9 2 -10 4 -2 1 -16 4 -32 6 -16 3 -37 9 -47 15 -16
8 -6670 14 -6680 5z m1162 -2556 c11 7 20 7 24 0 4 -7 13 -7 26 0 13 8 19 7
19 0 0 -6 5 -8 11 -5 14 9 117 10 126 2 3 -4 12 -2 19 4 8 7 14 7 19 -1 4 -6
12 -7 24 -1 10 6 23 6 31 1 8 -5 21 -5 31 1 11 6 20 5 24 -1 4 -7 12 -7 25 0
13 7 21 7 25 0 4 -7 13 -7 26 0 13 8 19 7 19 0 0 -6 4 -8 10 -5 16 10 90 11
90 2 0 -4 5 -5 11 -2 14 9 117 10 126 2 3 -4 12 -2 19 4 8 7 14 7 19 -1 4 -6
12 -7 24 -1 10 6 23 6 31 1 8 -5 21 -5 31 1 11 6 20 5 24 -1 4 -7 12 -7 25 0
13 7 21 7 25 0 4 -7 13 -7 26 0 13 8 19 7 19 0 0 -6 4 -8 10 -5 16 10 90 11
90 2 0 -4 5 -5 11 -2 14 9 117 10 126 2 3 -4 12 -2 19 4 8 7 14 7 19 -1 4 -6
12 -7 24 -1 10 6 23 6 31 1 8 -5 21 -5 31 1 11 6 20 5 24 -1 4 -7 12 -7 25 0
10 6 21 6 24 2 6 -9 59 -7 75 3 6 3 11 2 11 -4 0 -6 11 -6 30 -1 17 5 30 5 30
2 0 -8 79 -6 87 2 3 3 16 1 29 -4 16 -6 24 -6 24 1 0 6 7 6 19 -1 14 -7 22 -7
26 0 4 7 11 7 18 2 7 -5 21 -6 32 -2 11 4 30 4 43 -1 14 -5 22 -5 22 2 0 6 7
6 19 -1 14 -7 22 -7 26 0 4 7 11 7 18 2 7 -5 21 -6 32 -2 11 4 30 4 43 -1 14
-5 22 -5 22 2 0 6 7 6 19 -1 14 -7 22 -7 26 0 4 7 11 7 18 2 7 -5 21 -6 32 -2
11 4 30 4 43 -1 14 -5 22 -5 22 2 0 6 7 6 19 -1 14 -7 22 -7 26 0 4 7 11 7 18
2 7 -5 21 -6 32 -2 11 4 30 4 43 -1 14 -5 22 -5 22 2 0 6 7 6 19 -1 14 -7 22
-7 26 0 4 7 11 7 18 2 7 -5 21 -6 32 -2 11 4 30 4 43 -1 14 -5 22 -5 22 2 0 6
7 6 19 -1 14 -7 22 -7 26 0 4 7 11 7 18 2 7 -5 21 -6 32 -2 11 4 30 4 43 -1
14 -5 22 -5 22 2 0 6 7 6 19 -1 14 -7 22 -7 26 0 4 7 11 7 18 2 7 -5 21 -6 32
-2 11 4 30 4 43 -1 14 -5 22 -5 22 2 0 6 7 6 19 -1 14 -7 22 -7 26 0 4 7 11 7
18 2 7 -5 21 -6 32 -2 11 4 30 4 43 -1 14 -5 22 -5 22 2 0 6 7 6 19 -1 14 -7
22 -7 26 0 4 7 11 7 18 2 7 -5 21 -6 32 -2 11 4 30 4 43 -1 14 -5 22 -5 22 2
0 6 7 6 19 -1 14 -7 22 -7 26 0 4 7 11 7 18 2 7 -5 21 -6 32 -2 11 4 30 4 43
-1 14 -5 22 -5 22 2 0 6 7 6 19 -1 14 -7 22 -7 26 0 4 7 11 7 18 2 7 -5 21 -6
32 -2 11 4 30 4 43 -1 14 -5 22 -5 22 2 0 6 7 6 19 -1 14 -7 22 -7 26 0 4 7
11 7 18 2 7 -5 21 -6 32 -2 11 4 30 4 43 -1 14 -5 22 -5 22 2 0 6 7 6 19 -1
14 -7 22 -7 26 0 4 7 11 7 18 2 7 -5 21 -6 32 -2 11 4 30 4 43 -1 14 -5 22 -5
22 2 0 6 7 6 19 -1 14 -7 22 -7 26 0 4 6 11 8 16 4 6 -3 31 -8 56 -10 110 -9
214 -97 258 -219 4 -11 9 -48 10 -83 4 -64 -19 -153 -47 -188 -46 -58 -129
-121 -165 -127 -10 -1 -22 -5 -28 -8 -5 -4 -20 -5 -32 -4 -13 1 -23 -2 -23 -6
0 -4 -13 -4 -30 1 -18 5 -30 5 -30 0 0 -6 -10 -6 -25 0 -15 6 -26 6 -30 -1 -4
-6 -13 -6 -23 0 -10 6 -23 6 -34 0 -10 -6 -19 -5 -23 1 -4 6 -15 6 -30 0 -16
-6 -25 -6 -25 0 0 6 -9 6 -22 1 -13 -4 -34 -5 -48 -1 -14 4 -35 3 -47 -1 -14
-5 -23 -5 -23 1 0 6 -9 6 -25 0 -15 -6 -26 -6 -30 0 -4 7 -13 6 -25 0 -12 -6
-21 -7 -25 0 -4 6 -15 6 -30 0 -14 -5 -25 -6 -25 -1 0 5 -12 6 -27 2 -16 -4
-40 -4 -55 0 -17 5 -28 4 -28 -2 0 -7 -6 -7 -17 0 -11 6 -24 6 -35 0 -10 -6
-19 -5 -23 1 -4 7 -12 7 -25 0 -10 -6 -21 -7 -23 -3 -6 9 -59 9 -73 0 -6 -3
-16 -2 -24 3 -8 5 -22 5 -32 -1 -12 -6 -18 -6 -18 0 0 6 -11 6 -29 1 -15 -4
-34 -4 -42 0 -7 5 -18 6 -23 3 -12 -8 -106 -7 -113 1 -3 2 -16 1 -29 -4 -15
-6 -24 -6 -24 0 0 6 -9 6 -25 0 -16 -6 -25 -6 -25 0 0 6 -9 6 -25 0 -14 -5
-25 -6 -25 -2 0 4 -11 7 -25 7 -14 0 -25 -3 -25 -7 0 -4 -11 -3 -25 2 -15 6
-26 6 -30 -1 -4 -6 -13 -6 -23 0 -10 6 -23 6 -34 0 -10 -6 -19 -5 -23 1 -4 6
-15 6 -30 0 -16 -6 -25 -6 -25 0 0 6 -9 6 -22 1 -13 -4 -34 -5 -48 -1 -14 4
-35 3 -47 -1 -14 -5 -23 -5 -23 1 0 6 -9 6 -25 0 -15 -6 -26 -6 -30 0 -4 7
-13 6 -25 0 -12 -6 -21 -7 -25 0 -4 6 -15 6 -30 0 -14 -5 -25 -6 -25 -1 0 5
-12 6 -27 2 -16 -4 -40 -4 -55 0 -17 5 -28 4 -28 -2 0 -7 -6 -7 -17 0 -11 6
-24 6 -35 0 -10 -6 -19 -5 -23 1 -4 7 -12 7 -25 0 -10 -6 -21 -7 -23 -3 -6 9
-59 9 -73 0 -6 -3 -16 -2 -24 3 -8 5 -22 5 -32 -1 -10 -5 -18 -6 -18 -2 0 9
-79 8 -87 -1 -3 -3 -16 -1 -29 4 -15 6 -26 6 -30 -1 -4 -8 -9 -8 -17 0 -7 7
-16 7 -29 0 -12 -6 -18 -6 -18 0 0 7 -8 7 -22 2 -13 -5 -32 -5 -43 -1 -11 4
-25 3 -32 -2 -7 -5 -14 -5 -18 2 -4 7 -12 7 -26 0 -12 -7 -19 -7 -19 -1 0 7
-8 7 -22 2 -13 -5 -32 -5 -43 -1 -11 4 -25 3 -32 -2 -7 -5 -14 -5 -18 2 -4 7
-12 7 -26 0 -12 -7 -19 -7 -19 -1 0 7 -8 7 -22 2 -13 -5 -32 -5 -43 -1 -11 4
-25 3 -32 -2 -7 -5 -14 -5 -18 2 -4 7 -12 7 -26 0 -12 -7 -25 -7 -36 -1 -11 6
-24 6 -35 0 -12 -6 -18 -6 -18 0 0 7 -9 7 -25 1 -14 -5 -25 -6 -25 -2 0 4 -18
7 -40 7 -22 0 -40 -3 -40 -7 0 -4 -11 -3 -25 2 -16 6 -25 6 -25 0 0 -6 -9 -6
-25 0 -16 6 -25 6 -25 0 0 -6 -9 -6 -25 0 -15 6 -26 6 -30 -1 -4 -6 -13 -6
-23 0 -10 6 -23 6 -34 0 -11 -6 -18 -6 -18 0 0 5 -12 6 -27 2 -16 -4 -40 -4
-55 0 -16 4 -28 4 -28 -1 0 -6 -10 -6 -25 0 -16 6 -25 6 -25 0 0 -6 -9 -6 -23
-1 -14 5 -30 5 -40 0 -11 -7 -17 -6 -17 0 0 5 -11 6 -27 2 -16 -4 -40 -4 -55
0 -16 4 -28 4 -28 -1 0 -6 -10 -6 -25 0 -16 6 -25 6 -25 0 0 -6 -9 -6 -25 0
-16 6 -26 6 -31 -1 -4 -7 -10 -7 -18 0 -7 6 -17 6 -26 1 -8 -5 -18 -6 -24 -3
-5 4 -28 8 -50 9 -22 2 -47 6 -55 10 -9 4 -22 8 -29 10 -8 1 -22 10 -33 20
-10 9 -19 13 -19 9 0 -18 -86 85 -108 128 -13 26 -24 68 -25 96 -1 28 -6 51
-10 51 -5 0 -5 5 -2 11 4 5 9 25 12 42 10 68 55 136 138 205 21 18 126 54 141
48 6 -2 17 0 25 5 8 4 18 4 23 -1 5 -5 16 -5 27 0z m359 -1282 c0 -4 13 -3 30
2 17 5 32 5 35 0 3 -5 16 -5 30 0 15 6 27 6 30 0 3 -6 15 -6 30 0 15 6 27 6
30 0 3 -6 15 -6 30 0 15 6 27 6 30 0 3 -6 15 -6 30 0 15 6 27 6 30 0 3 -6 15
-6 30 0 15 6 27 6 30 0 3 -6 15 -6 30 0 15 6 27 6 30 0 3 -6 15 -6 30 0 15 6
27 6 30 0 3 -6 15 -6 30 0 15 6 27 6 30 0 3 -6 15 -6 30 0 15 6 27 6 30 0 3
-6 15 -6 30 0 15 6 27 6 30 0 3 -6 15 -6 30 0 15 6 27 6 30 0 3 -6 15 -6 30 0
15 6 27 6 30 0 3 -6 15 -6 30 0 15 6 27 6 30 0 3 -6 15 -6 30 0 15 6 27 6 30
0 3 -6 15 -6 30 0 15 6 27 6 30 0 3 -6 15 -6 30 0 15 6 27 6 30 0 3 -6 15 -6
30 0 15 6 27 6 30 0 3 -6 15 -6 30 0 13 5 26 6 29 2 3 -5 30 -5 61 -2 31 3 58
3 61 -2 3 -4 16 -3 29 2 15 6 27 6 30 0 3 -6 15 -6 30 0 15 6 27 6 30 0 3 -6
15 -6 30 0 15 6 27 6 30 0 3 -6 15 -6 30 0 15 6 27 6 30 0 3 -6 15 -6 30 0 15
6 27 6 30 0 3 -6 15 -6 30 0 15 6 27 6 30 0 3 -6 15 -6 30 0 15 6 27 6 30 0 3
-6 15 -6 30 0 15 6 27 6 30 0 3 -6 15 -6 30 0 15 6 27 6 30 0 3 -6 15 -6 30 0
15 6 27 6 30 0 3 -6 15 -6 30 0 15 6 27 6 30 0 3 -6 15 -6 30 0 15 6 27 6 30
0 3 -6 15 -6 30 0 15 6 27 6 30 0 3 -6 15 -6 30 0 15 6 27 6 30 0 3 -6 15 -6
30 0 15 6 27 6 30 0 3 -6 15 -6 30 0 15 6 27 6 30 0 3 -6 15 -6 29 0 13 5 27
6 30 3 7 -7 76 -10 76 -3 0 7 760 3 767 -4 3 -3 13 -1 22 4 10 5 23 5 31 0 8
-5 21 -5 30 0 9 5 22 5 30 0 8 -5 21 -5 30 0 9 5 22 5 30 0 8 -5 21 -5 30 0 9
5 22 5 30 0 7 -4 23 -4 36 0 12 5 24 6 28 3 3 -3 27 -7 53 -9 89 -6 172 -57
232 -142 12 -18 24 -38 25 -45 2 -7 6 -19 10 -28 4 -8 8 -35 11 -60 2 -24 4
-46 6 -49 1 -3 0 -9 -1 -15 -1 -5 -4 -23 -7 -40 -7 -45 -40 -109 -76 -147 -64
-69 -123 -96 -227 -104 -36 -2 -71 -6 -77 -9 -7 -2 -13 -1 -13 4 0 5 -18 5
-40 1 -22 -4 -40 -4 -40 0 0 4 -18 4 -40 0 -22 -4 -40 -4 -40 0 0 4 -18 4 -41
0 -22 -4 -56 -4 -75 0 -19 4 -36 4 -39 0 -3 -4 -19 -4 -37 -1 -18 4 -47 4 -64
0 -18 -3 -37 -3 -44 1 -7 4 -27 4 -45 0 -18 -4 -38 -4 -45 0 -7 4 -24 5 -38 1
-14 -4 -45 -4 -69 -1 -23 4 -47 4 -54 0 -6 -4 -26 -4 -45 0 -19 4 -36 4 -39 0
-3 -4 -19 -4 -37 -1 -18 4 -47 4 -64 0 -18 -3 -37 -3 -44 1 -7 4 -27 4 -45 0
-18 -4 -38 -4 -45 0 -7 4 -24 5 -38 1 -14 -4 -45 -4 -69 -1 -23 4 -47 4 -54 0
-6 -4 -26 -4 -45 0 -19 4 -36 4 -39 0 -3 -4 -19 -5 -37 -1 -18 4 -52 4 -75 1
-24 -4 -43 -4 -43 -1 0 7 -138 4 -157 -3 -7 -3 -13 -2 -13 3 0 5 -18 5 -40 1
-22 -4 -40 -4 -40 0 0 4 -18 4 -40 0 -22 -4 -40 -4 -40 0 0 4 -18 4 -40 0 -22
-4 -40 -4 -40 0 0 4 -18 4 -40 0 -22 -4 -40 -4 -40 0 0 4 -18 4 -40 0 -22 -4
-40 -4 -40 0 0 4 -18 4 -40 0 -23 -4 -40 -3 -40 2 0 5 -4 6 -10 3 -8 -5 -67
-7 -162 -4 -10 0 -43 -1 -73 -1 -30 -1 -59 1 -65 5 -5 3 -10 2 -10 -3 0 -5
-20 -6 -45 -2 -25 4 -47 5 -50 2 -6 -7 -105 -6 -111 1 -3 2 -20 1 -38 -3 -19
-4 -39 -4 -46 0 -6 4 -29 4 -51 0 -21 -4 -39 -4 -39 0 0 4 -18 4 -40 0 -22 -4
-43 -3 -46 1 -3 5 -9 7 -14 4 -5 -3 -53 -5 -107 -5 -135 1 -165 0 -174 -6 -4
-2 -10 0 -13 5 -3 4 -24 5 -46 1 -22 -4 -40 -4 -40 0 0 4 -18 4 -40 0 -22 -4
-42 -5 -44 -1 -2 3 -38 4 -80 1 -42 -3 -84 -2 -93 1 -9 3 -33 3 -52 -1 -20 -3
-53 -3 -73 0 -21 4 -38 3 -38 -1 0 -5 -6 -6 -12 -4 -7 3 -42 6 -78 9 -66 4
-80 7 -137 32 -46 21 -114 91 -143 149 -34 70 -34 197 0 269 50 105 157 178
262 180 32 1 58 3 58 6 0 3 83 5 185 5 102 0 185 -3 185 -7z m-1315 -3838 c4
7 12 7 23 1 10 -6 23 -6 34 0 10 6 19 5 23 -1 4 -7 13 -7 26 0 10 6 19 7 19 3
0 -4 11 -8 25 -8 14 0 25 2 25 5 0 7 165 4 185 -3 8 -4 15 -2 15 4 0 6 6 6 18
0 10 -5 24 -6 32 -1 8 5 21 5 31 -1 11 -6 20 -5 24 1 4 7 12 7 23 1 10 -6 23
-6 34 0 10 6 19 5 23 -1 4 -7 13 -7 26 0 10 6 19 7 19 3 0 -4 11 -8 25 -8 14
0 25 2 25 5 0 7 165 4 185 -3 8 -4 15 -2 15 4 0 6 6 6 18 0 10 -5 24 -6 32 -1
8 5 21 5 31 -1 11 -6 20 -5 24 1 4 7 12 7 23 1 10 -6 23 -6 34 0 10 6 19 5 23
-1 4 -7 13 -7 26 0 10 6 19 7 19 3 0 -4 11 -8 25 -8 14 0 25 2 25 5 0 7 165 4
185 -3 8 -4 15 -2 15 4 0 6 6 6 18 0 10 -5 24 -6 32 -1 8 5 21 5 31 -1 11 -6
20 -5 24 1 4 7 12 7 23 1 10 -6 23 -6 34 0 10 6 19 5 23 -1 4 -7 13 -7 26 0
10 6 19 7 19 3 0 -4 11 -8 25 -8 14 0 25 2 25 5 0 7 165 4 185 -3 8 -4 15 -2
15 4 0 6 6 6 18 0 10 -5 24 -6 32 -1 8 5 21 5 31 -1 11 -6 20 -5 24 1 4 7 12
7 23 1 10 -6 23 -6 34 0 10 6 19 5 23 -1 4 -7 13 -7 26 0 10 6 19 7 19 3 0 -4
11 -8 25 -8 14 0 25 2 25 5 0 7 91 2 98 -5 2 -2 13 0 23 5 12 7 20 7 24 0 4
-7 13 -7 26 0 10 6 19 7 19 3 0 -4 11 -8 25 -8 14 0 25 2 25 5 0 7 78 3 97 -4
7 -3 13 -1 13 4 0 6 9 6 23 2 22 -9 75 -7 84 2 3 3 16 1 29 -4 16 -6 24 -6 24
1 0 6 7 6 19 -1 14 -7 22 -7 26 0 4 7 11 7 18 2 7 -5 21 -6 32 -2 11 4 30 4
43 -1 14 -5 22 -5 22 2 0 6 7 6 19 -1 14 -7 22 -7 26 0 4 7 11 7 18 2 7 -5 21
-6 32 -2 11 4 30 4 43 -1 14 -5 22 -5 22 2 0 6 7 6 19 -1 14 -7 22 -7 26 0 4
7 11 7 18 2 7 -5 21 -6 32 -2 11 4 30 4 43 -1 14 -5 22 -5 22 2 0 6 7 6 19 -1
14 -7 22 -7 26 0 4 7 11 7 18 2 7 -5 21 -6 32 -2 11 4 30 4 43 -1 14 -5 22 -5
22 2 0 6 7 6 19 -1 14 -7 22 -7 26 0 4 7 11 7 18 2 7 -5 21 -6 32 -2 11 4 30
4 43 -1 14 -5 22 -5 22 2 0 6 7 6 19 -1 14 -7 22 -7 26 0 4 7 11 7 18 2 7 -5
21 -6 32 -2 11 4 30 4 43 -1 14 -5 22 -5 22 2 0 6 7 6 19 -1 14 -7 22 -7 26 0
4 7 11 7 18 2 7 -5 21 -6 32 -2 11 4 30 4 43 -1 14 -5 22 -5 22 2 0 6 7 6 19
-1 14 -7 22 -7 26 0 4 7 11 7 18 2 7 -5 21 -6 32 -2 11 4 30 4 43 -1 14 -5 22
-5 22 2 0 6 7 6 19 -1 14 -7 22 -7 26 0 4 7 11 7 18 2 7 -5 21 -6 32 -2 11 4
30 4 43 -1 14 -5 22 -5 22 2 0 6 7 6 19 -1 14 -7 22 -7 26 0 4 7 11 7 18 2 7
-5 21 -6 32 -2 11 4 30 4 43 -1 14 -5 22 -5 22 2 0 6 7 6 19 -1 14 -7 22 -7
26 0 4 7 11 7 18 2 7 -5 21 -6 32 -2 11 4 30 4 43 -1 14 -5 22 -5 22 2 0 6 7
6 19 -1 14 -7 22 -7 26 0 4 7 11 7 18 2 7 -5 21 -6 32 -2 11 4 30 4 43 -1 14
-5 22 -5 22 2 0 6 7 6 19 -1 14 -7 22 -7 26 0 4 7 11 7 18 2 7 -5 21 -6 32 -2
11 4 30 4 43 -1 14 -5 22 -5 22 2 0 6 7 6 19 -1 14 -7 22 -7 26 0 4 7 11 7 18
2 7 -5 21 -6 32 -2 11 4 30 4 43 -1 14 -5 22 -5 22 2 0 6 7 6 19 -1 13 -7 22
-7 26 0 4 7 12 7 23 1 10 -6 23 -6 34 0 12 6 18 6 18 0 0 -7 9 -7 25 -1 16 6
25 6 25 0 0 -6 9 -6 24 0 19 7 25 5 33 -13 5 -12 6 -34 2 -49 -4 -16 -3 -30 1
-33 5 -3 5 -17 0 -31 -6 -14 -7 -23 -2 -21 4 3 7 -8 7 -24 0 -16 -4 -29 -8
-29 -4 0 -4 -8 2 -17 5 -10 5 -26 0 -40 -5 -14 -5 -23 1 -23 6 0 6 -9 1 -23
-5 -13 -5 -30 -1 -37 5 -8 4 -22 -1 -31 -6 -11 -5 -20 1 -24 6 -4 6 -15 0 -30
-5 -14 -6 -25 -2 -25 4 0 7 -13 7 -30 0 -16 -3 -30 -7 -30 -4 0 -3 -11 2 -25
6 -17 6 -25 -1 -25 -7 0 -7 -6 0 -17 6 -11 6 -24 0 -35 -6 -10 -5 -19 1 -23 6
-4 6 -15 0 -30 -5 -14 -6 -25 -2 -25 4 0 7 -13 7 -30 0 -16 -3 -30 -7 -30 -4
0 -3 -11 2 -25 6 -17 6 -25 -1 -25 -7 0 -7 -6 0 -17 6 -11 6 -24 0 -35 -6 -10
-5 -19 1 -23 6 -4 6 -15 0 -30 -5 -14 -6 -25 -2 -25 4 0 7 -13 7 -30 0 -16 -3
-30 -7 -30 -4 0 -3 -11 2 -25 6 -17 6 -25 -1 -25 -7 0 -7 -6 0 -17 6 -11 6
-24 0 -35 -6 -10 -5 -19 1 -23 6 -4 6 -15 0 -30 -6 -16 -6 -25 1 -25 6 0 6 -7
-1 -19 -7 -13 -7 -22 0 -26 7 -4 7 -13 0 -24 -6 -12 -5 -22 2 -29 9 -9 8 -12
-5 -13 -104 -4 -1469 0 -1473 4 -4 3 -17 2 -30 -3 -14 -6 -26 -6 -29 0 -3 6
-15 6 -30 0 -15 -6 -27 -6 -30 0 -3 6 -15 6 -30 0 -15 -6 -27 -6 -30 0 -3 6
-15 6 -30 0 -15 -6 -27 -6 -30 0 -3 6 -15 6 -30 0 -15 -6 -27 -6 -30 0 -3 6
-15 6 -30 0 -15 -6 -27 -6 -30 0 -3 6 -15 6 -30 0 -15 -6 -27 -6 -30 0 -3 6
-15 6 -30 0 -15 -6 -27 -6 -30 0 -3 6 -15 6 -30 0 -15 -6 -27 -6 -30 0 -3 6
-15 6 -30 0 -15 -6 -27 -6 -30 0 -3 6 -15 6 -30 0 -15 -6 -27 -6 -30 0 -3 6
-15 6 -30 0 -15 -6 -27 -6 -30 0 -3 6 -15 6 -30 0 -15 -6 -27 -6 -30 0 -3 6
-15 6 -30 0 -15 -6 -27 -6 -30 0 -3 6 -15 6 -30 0 -15 -6 -27 -6 -30 0 -3 6
-15 6 -30 0 -15 -6 -27 -6 -30 0 -3 6 -15 6 -29 0 -13 -5 -27 -6 -30 -2 -8 8
-103 5 -116 -3 -6 -3 -10 -2 -10 4 0 6 -11 6 -30 1 -17 -5 -30 -5 -30 0 0 4
-16 4 -35 0 -19 -4 -37 -4 -40 1 -3 4 -16 4 -29 -1 -12 -4 -29 -5 -36 0 -7 5
-24 4 -37 -1 -13 -5 -23 -5 -23 1 0 5 -12 5 -30 0 -17 -5 -30 -5 -30 0 0 5
-13 5 -30 0 -17 -5 -30 -5 -30 0 0 4 -16 4 -35 0 -19 -4 -37 -4 -40 1 -3 4
-16 4 -29 -1 -12 -4 -29 -5 -36 0 -7 5 -24 4 -37 -1 -13 -5 -23 -5 -23 1 0 5
-12 5 -30 0 -17 -5 -30 -5 -30 0 0 5 -13 5 -30 0 -16 -5 -30 -5 -30 0 0 4 -16
4 -35 0 -19 -4 -37 -4 -40 1 -3 4 -16 4 -29 -1 -12 -4 -29 -5 -36 0 -7 5 -24
4 -37 -1 -13 -5 -23 -5 -23 1 0 5 -12 5 -30 0 -17 -5 -30 -5 -30 0 0 5 -13 5
-30 0 -16 -5 -30 -5 -30 0 0 4 -16 4 -35 0 -19 -4 -37 -4 -40 1 -3 4 -16 4
-29 -1 -12 -4 -29 -5 -36 0 -7 5 -23 5 -34 1 -23 -8 -56 -7 -80 2 -8 3 -18 2
-21 -3 -3 -6 -15 -6 -30 0 -15 6 -27 6 -30 0 -3 -6 -15 -6 -30 0 -15 6 -27 6
-30 0 -3 -6 -15 -6 -30 0 -15 6 -27 6 -30 0 -3 -6 -15 -6 -30 0 -15 6 -27 6
-30 0 -3 -6 -15 -6 -30 0 -15 6 -27 6 -30 0 -3 -6 -15 -6 -30 0 -15 6 -27 6
-30 0 -3 -6 -15 -6 -30 0 -15 6 -27 6 -30 0 -3 -6 -15 -6 -30 0 -15 6 -27 6
-30 0 -3 -6 -15 -6 -30 0 -15 6 -27 6 -30 0 -3 -6 -15 -6 -30 0 -15 6 -27 6
-30 0 -3 -6 -15 -6 -30 0 -15 6 -27 6 -30 0 -3 -6 -15 -6 -30 0 -15 6 -27 6
-30 0 -3 -6 -15 -6 -30 0 -15 6 -27 6 -30 0 -3 -6 -15 -6 -30 0 -15 6 -27 6
-30 0 -3 -6 -15 -6 -30 0 -15 6 -27 6 -30 0 -3 -6 -15 -6 -30 0 -15 6 -27 6
-30 0 -3 -6 -15 -6 -30 0 -15 6 -27 6 -30 0 -3 -6 -15 -6 -30 0 -15 6 -27 6
-30 0 -3 -6 -15 -6 -30 0 -15 6 -27 6 -30 0 -3 -6 -15 -6 -30 0 -15 6 -27 6
-30 -1 -4 -5 -11 -7 -16 -3 -6 3 -29 8 -52 10 -49 5 -102 12 -102 14 0 1 -8 3
-17 5 -32 6 -188 85 -188 95 0 6 -6 10 -14 10 -8 0 -44 32 -80 71 -64 69 -143
204 -151 259 -2 14 -7 36 -10 50 -4 14 -8 44 -9 67 -1 23 -5 45 -8 49 -4 3 -3
16 2 28 4 13 4 29 0 36 -5 8 -6 19 -2 25 3 5 7 15 8 20 2 6 4 19 7 30 22 107
76 218 146 296 47 53 164 146 174 138 3 -2 13 3 23 11 35 29 130 57 223 65 30
3 57 7 59 10 3 2 13 0 23 -5 12 -7 20 -7 24 0z"/>
</g>
</svg>
